<?xml version="1.0" encoding="utf-8"?>
<!-- Generator: Adobe Illustrator 19.0.0, SVG Export Plug-In . SVG Version: 6.00 Build 0)  -->
<svg version="1.1" id="Layer_2" xmlns="http://www.w3.org/2000/svg" xmlns:xlink="http://www.w3.org/1999/xlink" x="0px" y="0px"
	 viewBox="0 0 612 470" style="enable-background:new 0 0 612 470;" xml:space="preserve">
<style type="text/css">
	.st0{fill:#3BB983;}
	.st1{fill:#FFFFFF;}
	.st2{fill:#D3D3D3;}
	.st3{fill:#444B98;}
	.st4{fill:#F3787A;}
	.st5{fill:#55BD88;}
	.st6{fill:#3C4282;}
	.st7{fill:#F27292;}
	.st8{fill:#FEDEC4;}
	.st9{fill:#D1D1DD;}
	.st10{fill:#5F4A42;}
	.st11{fill:#DEDDE9;}
	.st12{fill:#242143;}
	.st13{fill:#FBC1A2;}
	.st14{fill:#FBC2A2;}
	.st15{fill:#3B3850;}
	.st16{fill:#FFCC46;}
	.st17{fill:#F9A12B;}
	.st18{fill:#EC4D78;}
	.st19{fill:#EFEEEE;}
</style>
<g id="XMLID_136_">
	<g id="XMLID_137_">
		<g id="XMLID_510_">
			<g id="XMLID_572_">
				<path id="XMLID_157_" class="st0" d="M542,414c-2.8,0-5.5,0.6-7.9,1.7c0.1-0.7,0.1-1.5,0.1-2.2c0-15.8-12.8-28.7-28.7-28.7
					c-7.4,0-14.1,2.8-19.2,7.4c-3.8-2.6-8.3-4.2-13.2-4.7v-15.3c0-16.8-13.6-30.5-30.5-30.5c-15.5,0-28.3,11.5-30.2,26.5
					c-3.8-1.1-7.8-1.7-11.9-1.7c-8.7,0-16.7,2.6-23.4,7.1c-7.5-6.7-17.4-10.8-28.2-10.8c-23.3,0-42.2,18.9-42.2,42.2
					c0,1.1,0,2.2,0.1,3.2c-3.6-1.6-7.5-2.5-11.7-2.5c-4.8,0-9.3,1.2-13.3,3.2c-2.2-13.7-14-24.1-28.3-24.1c-7.4,0-14.1,2.8-19.2,7.4
					c-3.8-2.6-8.3-4.2-13.2-4.7v-15.3c0-16.8-13.6-30.5-30.5-30.5c-15.5,0-28.3,11.5-30.2,26.5c-3.8-1.1-7.8-1.7-11.9-1.7
					c-8.7,0-16.7,2.6-23.4,7.1c-7.5-6.7-17.4-10.8-28.2-10.8c-23.3,0-42.2,18.9-42.2,42.2c0,1.1,0,2.2,0.1,3.2
					c-3.6-1.6-7.5-2.5-11.7-2.5c-15,0-27.4,11.4-28.9,26h251.9h43.4h251.9C560.6,421.8,552.2,414,542,414z"/>
				<g id="XMLID_573_">
					<g id="XMLID_574_">
						<g id="XMLID_581_">
							<path id="XMLID_156_" class="st1" d="M399.6,422.5H176.4c-7.2,0-13-5.8-13-13V29.3c0-7.2,5.8-13,13-13h223.2
								c7.2,0,13,5.8,13,13v380.2C412.6,416.7,406.8,422.5,399.6,422.5z"/>
							<circle id="XMLID_155_" class="st2" cx="288" cy="393.3" r="19"/>
							<g id="XMLID_582_">
								<path id="XMLID_135_" class="st2" d="M316.4,41.3h-45.9c-1.6,0-2.8-1.3-2.8-2.8l0,0c0-1.6,1.3-2.8,2.8-2.8h45.9
									c1.6,0,2.8,1.3,2.8,2.8l0,0C319.2,40,317.9,41.3,316.4,41.3z"/>
								<circle id="XMLID_134_" class="st2" cx="259.6" cy="38.4" r="2.8"/>
							</g>
						</g>
						<g id="XMLID_575_">
							<g id="XMLID_579_">
								<rect id="XMLID_133_" x="157.7" y="67.4" class="st2" width="5.7" height="28.3"/>
							</g>
							<g id="XMLID_576_">
								<rect id="XMLID_132_" x="412.6" y="67.4" class="st2" width="5.7" height="28.3"/>
								<rect id="XMLID_131_" x="412.6" y="121.9" class="st2" width="5.7" height="28.3"/>
							</g>
						</g>
					</g>
				</g>
			</g>
			<g id="XMLID_511_">
				<rect id="XMLID_130_" x="182.6" y="55.3" class="st3" width="211.5" height="306.7"/>
				<g id="XMLID_512_">
					<g id="XMLID_528_">
						<g id="XMLID_414_">
							<g id="XMLID_424_">
								<g id="XMLID_437_">
									<path id="XMLID_443_" class="st4" d="M245.9,198.4h-41.5c-2.4,0-4.4-2-4.4-4.4v-41.5c0-2.4,2-4.4,4.4-4.4h41.5
										c2.4,0,4.4,2,4.4,4.4V194C250.3,196.4,248.4,198.4,245.9,198.4z"/>
								</g>
								<g id="XMLID_431_">
									<path id="XMLID_436_" class="st5" d="M309.1,198.4h-41.5c-2.4,0-4.4-2-4.4-4.4v-41.5c0-2.4,2-4.4,4.4-4.4h41.5
										c2.4,0,4.4,2,4.4,4.4V194C313.5,196.4,311.5,198.4,309.1,198.4z"/>
								</g>
								<rect id="XMLID_430_" x="326.3" y="148.1" class="st6" width="50.4" height="50.4"/>
								<g id="XMLID_427_">
									<path id="XMLID_429_" class="st1" d="M288.3,171.6l17.2-8.5c-0.2-1.5-1.5-2.6-3.1-2.6h-28.3c-1.4,0-2.5,0.9-3,2.1
										L288.3,171.6z"/>
									<path id="XMLID_428_" class="st1" d="M288.3,174.9l-17.3-9.1v17.1c0,1.7,1.4,3.2,3.2,3.2h28.3c1.7,0,3.2-1.4,3.2-3.2v-16.5
										L288.3,174.9z"/>
								</g>
								<path id="XMLID_426_" class="st1" d="M240.8,166c-0.3-0.4-0.6-0.8-0.9-1.2l0.6-0.6c0.8-0.8,0.8-2,0-2.8l-5.6-5.6
									c-0.8-0.8-2-0.8-2.8,0l-5.6,5.6c-0.7,0.7-0.8,1.6-0.3,2.4c0.1,0.1,0.2,0.3,0.3,0.4l3.1,3.1l2.4,2.4c0.8,0.8,2,0.8,2.8,0
									l1.5-1.5c0.3,0.4,0.5,0.9,0.7,1.4c0.9,2.4,0.4,5.2-1.5,7.1l-7.6,7.6c-1.9,1.9-4.7,2.4-7.1,1.5c-0.5-0.2-0.9-0.4-1.4-0.7
									l2.7-2.7c0.8-0.8,0.8-2,0-2.8l-2.4-2.4l-3.1-3.1c-0.1-0.1-0.3-0.2-0.4-0.3c-0.8-0.5-1.7-0.3-2.4,0.3l-5.6,5.6
									c-0.8,0.8-0.8,2,0,2.8l5.6,5.6c0.6,0.6,1.4,0.7,2.1,0.5c0.4,0.4,0.9,0.7,1.4,1c4.5,2.8,10.4,2.2,14.3-1.6l7.6-7.6
									C243.1,176.4,243.6,170.5,240.8,166z"/>
							</g>
							<g id="XMLID_420_">
								<rect id="XMLID_423_" x="200" y="218.6" class="st6" width="50.4" height="50.4"/>
								<rect id="XMLID_422_" x="263.1" y="218.6" class="st6" width="50.4" height="50.4"/>
								<rect id="XMLID_421_" x="326.3" y="218.6" class="st6" width="50.4" height="50.4"/>
							</g>
							<g id="XMLID_416_">
								<rect id="XMLID_419_" x="200" y="289" class="st6" width="50.4" height="50.4"/>
								<rect id="XMLID_418_" x="263.1" y="289" class="st6" width="50.4" height="50.4"/>
								<rect id="XMLID_417_" x="326.3" y="289" class="st6" width="50.4" height="50.4"/>
							</g>
						</g>
					</g>
					<g id="XMLID_513_">
						<g id="XMLID_519_">
							<g id="XMLID_520_">
								<path id="XMLID_117_" class="st7" d="M219.8,93.2h-18.3c-0.9,0-1.5-0.7-1.5-1.5V73.3c0-0.9,0.7-1.5,1.5-1.5h18.3
									c0.9,0,1.5,0.7,1.5,1.5v18.3C221.4,92.5,220.7,93.2,219.8,93.2z"/>
								<g id="XMLID_521_">
									<rect id="XMLID_115_" x="203.4" y="75.8" class="st1" width="14.6" height="3"/>
									<rect id="XMLID_114_" x="203.4" y="81" class="st1" width="14.6" height="3"/>
									<rect id="XMLID_113_" x="203.4" y="86.2" class="st1" width="14.6" height="3"/>
								</g>
							</g>
						</g>
						<g id="XMLID_514_">
							<path id="XMLID_112_" class="st7" d="M373.9,71.8h-22c-0.6,0-1.3,0.2-1.8,0.7l-9.4,8c-1.3,1.1-1.3,3.1,0,4.2l9.4,8
								c0.5,0.4,1.1,0.7,1.8,0.7h22c1.5,0,2.7-1.2,2.7-2.7V74.5C376.6,73,375.4,71.8,373.9,71.8z"/>
							<polygon id="XMLID_111_" class="st1" points="366.9,79.4 363.6,76.2 360.6,79.2 357.6,76.2 354.3,79.4 357.4,82.5 
								354.3,85.5 357.6,88.7 360.6,85.7 363.6,88.7 366.9,85.5 363.8,82.5 							"/>
						</g>
					</g>
				</g>
			</g>
		</g>
		<g id="XMLID_432_">
			<path id="XMLID_110_" class="st2" d="M195.5,450.1c0,0-38.6,5-86.1,5c-47.6,0-86.1-5-86.1-5s38.6-5,86.1-5
				C157,445.1,195.5,450.1,195.5,450.1z"/>
			<g id="XMLID_433_">
				<g id="XMLID_504_">
					<polygon id="XMLID_109_" class="st8" points="165.1,244.7 164.3,235.9 166.2,225.1 169,225.6 169,234.1 181.5,223.2 
						183.7,224.3 186.1,223.5 188,225.4 185,230.7 186.3,232.5 176.5,245.3 170.3,248 168.6,252.5 162.8,249.1 					"/>
					<path id="XMLID_108_" class="st9" d="M123.4,209.8c0,0,8.8,3.7,11.2,12.9c2.4,9.1,11,36.7,12.8,37.3c1.8,0.6,14-19.5,14-19.5
						l14,9.7c0,0-12.8,30.8-28,32.6c-15.2,1.8-24-36.4-24-36.4V209.8z"/>
				</g>
				<g id="XMLID_475_">
					<g id="XMLID_479_">
						<g id="XMLID_492_">
							<path id="XMLID_107_" class="st10" d="M119.2,447.1l10.7,0.8l0.4-3.2c3.8,3.3,17.8,4.8,29.3,5.4l0.3-4c-13.5-4-26.1-13-27-14
								c0,0,0,0,0,0c-0.7-1-1.2-7.1-1-12l-10.5-0.8l0.9,14.5c-0.1,0.1-0.2,0.2-0.3,0.4C120.1,437,119.2,447.1,119.2,447.1z"/>
							<path id="XMLID_106_" class="st1" d="M122.3,433.8c-0.1,0.1-0.2,0.2-0.3,0.4c3.7,0.4,8.7-1.3,10.9-2.1c-0.7-1-1.2-7.1-1-12
								l-10.5-0.8L122.3,433.8z"/>
							<g id="XMLID_493_">
								<g id="XMLID_498_">
									
										<rect id="XMLID_105_" x="137" y="437.9" transform="matrix(-0.6222 0.7828 -0.7828 -0.6222 570.375 602.2863)" class="st1" width="5.7" height="1.8"/>
								</g>
								<g id="XMLID_496_">
									
										<rect id="XMLID_104_" x="134.6" y="436.2" transform="matrix(-0.6223 0.7828 -0.7828 -0.6223 565.2062 601.4489)" class="st1" width="5.7" height="1.8"/>
								</g>
								<g id="XMLID_494_">
									
										<rect id="XMLID_103_" x="132" y="434.5" transform="matrix(-0.6223 0.7828 -0.7828 -0.6223 559.5938 600.8661)" class="st1" width="5.7" height="1.8"/>
								</g>
							</g>
						</g>
						<g id="XMLID_480_">
							<path id="XMLID_102_" class="st10" d="M97.9,447.1l-10.7,0.8l-0.4-3.2c-3.8,3.3-17.8,4.8-29.3,5.4l-0.3-4
								c13.5-4,26.1-13,27-14c0,0,0,0,0,0c0.7-1,1.2-7.1,1-12l10.5-0.8l-0.9,14.5c0.1,0.1,0.2,0.2,0.3,0.4
								C97,437,97.9,447.1,97.9,447.1z"/>
							<path id="XMLID_101_" class="st1" d="M94.8,433.8c0.1,0.1,0.2,0.2,0.3,0.4c-3.7,0.4-8.7-1.3-10.9-2.1c0.7-1,1.2-7.1,1-12
								l10.5-0.8L94.8,433.8z"/>
							<g id="XMLID_481_">
								<g id="XMLID_486_">
									
										<rect id="XMLID_100_" x="74.4" y="437.9" transform="matrix(0.6222 0.7828 -0.7828 0.6222 372.6597 105.2932)" class="st1" width="5.7" height="1.8"/>
								</g>
								<g id="XMLID_484_">
									
										<rect id="XMLID_99_" x="76.8" y="436.2" transform="matrix(0.6222 0.7828 -0.7828 0.6222 372.2425 102.7967)" class="st1" width="5.7" height="1.8"/>
								</g>
								<g id="XMLID_482_">
									
										<rect id="XMLID_98_" x="79.4" y="434.5" transform="matrix(0.6223 0.7828 -0.7828 0.6223 371.9482 100.0804)" class="st1" width="5.7" height="1.8"/>
								</g>
							</g>
						</g>
					</g>
					<path id="XMLID_97_" class="st3" d="M83.9,281.7c0,0-7.8,131.8-6.1,141.5h19.8c0,0,4.5-109.6,9.6-112.1
						c5.2-2.4,10.4,112.1,10.4,112.1h19.2l-10.3-139.5L83.9,281.7z"/>
				</g>
				<g id="XMLID_466_">
					<path id="XMLID_96_" class="st11" d="M95.2,207.1c0,0-8.6,1-10.9,4.7c-2.3,3.7-0.4,69.9-0.4,69.9s20.3,10,42.6,2.1
						c0,0-1.4-72.3-3-73.9c-1.7-1.6-8.1-2.5-8.1-2.5l-10.2,3.9L95.2,207.1z"/>
					<polygon id="XMLID_95_" class="st12" points="93.2,231.1 71.7,262.5 94.7,277.2 117.5,247 					"/>
					<path id="XMLID_94_" class="st8" d="M91.9,246.2c0,0,1.8-5.8,0-8.8l2.1-1.4l2.9,5.4c0,0,2.5-5.4,1.5-6.4l-1.3-1.3
						c0,0,3.3-0.8,4.2,0.4l2.2,0.2l1.5,1.6l2.2,0.5l2.2,3.5l-4.5,8.2l-8.1,7.7l-7.3-7.7L91.9,246.2z"/>
					<path id="XMLID_93_" class="st9" d="M84.3,211.8c0,0-40.1,46.1-24.3,64.3c15.8,18.3,39.3-19.8,39.3-19.8l-9.3-9.9
						c0,0-15.1,17.5-16.3,15c-1.2-2.5,9.5-23.2,9.5-23.2L84.3,211.8z"/>
				</g>
				<g id="XMLID_434_">
					<g id="XMLID_438_">
						<g id="XMLID_463_">
							<path id="XMLID_92_" class="st8" d="M111.5,194.8v12.3c0,0-2.9,4.1-6.3,4.1c-3.4,0-5.9-5.5-5.9-5.5l0.7-6.4l0.5-4.5H111.5z"
								/>
							<path id="XMLID_91_" class="st13" d="M111.5,194.8v5.4c-6.2,1.7-9.7,0.4-11.5-0.9l0.5-4.5H111.5z"/>
						</g>
						<g id="XMLID_439_">
							<g id="XMLID_453_">
								<path id="XMLID_90_" class="st8" d="M108.5,161.9c0,0,18.7,24.9,7.4,33.7c-9.3,7.2-17.4,1.6-19.4-2.8
									c-2.8-5.9-6.6-25.4-6.6-25.4L108.5,161.9z"/>
								<path id="XMLID_89_" class="st8" d="M112.9,172.4c0,0,3.5-6.2,7.4-0.7c3.9,5.5-2.8,10.4-2.8,10.4L112.9,172.4z"/>
								<path id="XMLID_88_" class="st8" d="M94.4,177.9c0,0-6.3-3.3-6.5,3.4c-0.3,6.7,8,7.2,8,7.2L94.4,177.9z"/>
								<g id="XMLID_458_">
									<path id="XMLID_87_" class="st14" d="M117,171.4c0,0,0.4,0.2,0.9,0.6c0.5,0.4,1,1.1,1.4,1.9c0.3,0.8,0.4,1.7,0.3,2.4
										c-0.1,0.6-0.2,1-0.2,1s0.1-0.1,0.2-0.2c0.1-0.2,0.3-0.4,0.4-0.7c0.3-0.6,0.4-1.7,0-2.7c-0.4-1.1-1.3-1.7-1.9-2
										c-0.3-0.1-0.6-0.2-0.8-0.2C117.1,171.4,117,171.4,117,171.4z"/>
								</g>
								<g id="XMLID_456_">
									<path id="XMLID_86_" class="st14" d="M90.9,179.7c0,0-0.2,0.4-0.4,1c-0.2,0.6-0.3,1.5-0.1,2.4c0.2,0.9,0.6,1.7,1,2.1
										c0.4,0.5,0.7,0.8,0.7,0.8s-0.1,0-0.3-0.1c-0.2-0.1-0.4-0.2-0.7-0.4c-0.6-0.4-1.3-1.2-1.5-2.3c-0.2-1.1,0.1-2.1,0.5-2.7
										c0.2-0.3,0.4-0.5,0.5-0.6C90.9,179.7,90.9,179.7,90.9,179.7z"/>
								</g>
								<circle id="XMLID_85_" class="st13" cx="114" cy="179" r="2"/>
								<circle id="XMLID_84_" class="st13" cx="97.7" cy="183.8" r="2"/>
							</g>
							<g id="XMLID_451_">
								<path id="XMLID_83_" class="st13" d="M106.3,185.6c0,0,0.1,0.2,0.5,0.4c0.2,0.1,0.4,0.2,0.7,0.3c0.3,0.1,0.7,0.1,1,0
									c0.4-0.1,0.8-0.4,1.1-0.8c0.3-0.4,0.4-1,0.3-1.5c-0.1-0.9-0.4-1.9-0.7-2.9c-0.7-2-1.8-3.6-2.7-4.6c-0.5-0.5-0.8-0.9-1.1-1.2
									c-0.3-0.3-0.4-0.4-0.4-0.4s0.1,0.2,0.3,0.5c0.2,0.3,0.5,0.8,0.8,1.4c0.6,1.2,1.4,2.8,2.1,4.7c0.3,0.9,0.6,1.8,0.9,2.7
									c0.3,0.6-0.1,1.3-0.6,1.5c-0.5,0.3-1,0.1-1.4,0.1C106.5,185.7,106.3,185.6,106.3,185.6z"/>
							</g>
							<g id="XMLID_440_">
								<path id="XMLID_82_" class="st12" d="M83.2,162.9c0.6-2.1,6.1-7.2,18.6-8.4c6-0.6,4.9-7.2,4.9-7.2s7.7,6.3,6,12.1
									c0.7,0.5,1.4,1.2,1.8,2.3c1,2.9,1.6,7.8,1.6,7.8s-2.2,0.1-0.4,4.2l-6.5-10c-8.8,6.1-18.9,5.4-18.9,5.4l2.5,10.7
									c0,0-1.7-3.2-3.8-2C89,177.9,82.6,165,83.2,162.9z"/>
								<g id="XMLID_441_">
									<g id="XMLID_448_">
										<path id="XMLID_81_" class="st15" d="M92.2,165.2c0,0,0.3,0.1,0.9,0.3c0.6,0.1,1.4,0.3,2.5,0.4c2.1,0.2,5.3-0.2,8.2-1.8
											c2.9-1.6,4.9-4.1,5.7-6.2c0.4-1,0.5-1.9,0.4-2.5c0-0.3,0-0.5-0.1-0.7c0-0.2,0-0.2,0-0.2s0,0.3,0,0.9
											c-0.1,0.6-0.3,1.4-0.7,2.3c-0.9,1.9-2.9,4-5.7,5.5c-2.7,1.5-5.6,2.1-7.7,2.2c-1,0-1.9,0-2.5-0.1
											C92.5,165.2,92.2,165.2,92.2,165.2z"/>
									</g>
									<g id="XMLID_446_">
										<path id="XMLID_80_" class="st15" d="M91.5,163.1c0,0,0.9,0.1,2.5,0.2c1.5,0,3.7,0,6-0.9c2.3-0.9,3.8-2.7,4.7-3.9
											c0.9-1.3,1.4-2.1,1.4-2.1s-0.7,0.7-1.7,1.8c-1.1,1.1-2.6,2.5-4.7,3.3c-2.1,0.8-4.2,1.1-5.7,1.3
											C92.5,163,91.5,163.1,91.5,163.1z"/>
									</g>
									<g id="XMLID_444_">
										<path id="XMLID_79_" class="st15" d="M86,166.6c0,0,0-0.1,0.1-0.3c0-0.2,0.1-0.5,0.2-0.9c0.2-0.8,0.6-1.7,1.1-2.7
											c0.6-1,1.3-1.7,1.8-2.3c0.3-0.3,0.5-0.5,0.7-0.6c0.2-0.1,0.3-0.2,0.3-0.2s-0.1,0-0.3,0.1c-0.2,0-0.5,0.2-0.9,0.3
											c-0.7,0.3-1.7,1.1-2.4,2.2c-0.7,1.1-0.9,2.3-0.8,3.1c0,0.4,0.1,0.7,0.1,1C86,166.4,86,166.6,86,166.6z"/>
									</g>
									<g id="XMLID_442_">
										<path id="XMLID_78_" class="st15" d="M88.3,169c0,0-0.1-0.3-0.2-0.6c-0.1-0.4-0.1-0.8-0.1-1.3c0-0.5,0-0.9,0.1-1.3
											c0.1-0.4,0.1-0.6,0.1-0.6s-0.3,0.1-0.6,0.4c-0.3,0.3-0.6,0.9-0.6,1.5c0,0.7,0.3,1.2,0.6,1.5C88.1,169,88.3,169,88.3,169z"
											/>
									</g>
								</g>
							</g>
						</g>
					</g>
					<g id="XMLID_435_">
						<polygon id="XMLID_77_" class="st1" points="99.3,205.7 95.2,207.1 100,217.9 105.2,211.2 						"/>
						<polygon id="XMLID_76_" class="st1" points="105.2,211.2 110.3,217.9 115.4,207.3 111.5,205.7 						"/>
					</g>
				</g>
			</g>
		</g>
		<g id="XMLID_425_">
			<rect id="XMLID_75_" x="13.7" y="158.6" class="st7" width="21.1" height="21.1"/>
			<rect id="XMLID_74_" x="30" y="186.9" class="st16" width="21.1" height="21.1"/>
		</g>
		<g id="XMLID_291_">
			<g id="XMLID_392_">
				<path id="XMLID_73_" class="st2" d="M603,454.2c-15.8-1.4-40.1-3-67.4-3c-24.9,0-47.3,1.4-63,2.7c-15.7-1.3-38.1-2.7-63-2.7
					c-47.6,0-86.1,5-86.1,5s38.6,5,86.1,5c24.9,0,47.3-1.4,63-2.7c15.7,1.3,38.1,2.7,63,2.7c27.3,0,51.6-1.6,67.4-3V454.2z"/>
				<g id="XMLID_415_">
					<rect id="XMLID_72_" x="354.2" y="390.2" class="st16" width="103.2" height="64.9"/>
					<polygon id="XMLID_71_" class="st17" points="354.2,390.2 457.4,455.1 354.2,455.1 					"/>
				</g>
				<g id="XMLID_393_">
					<g id="XMLID_408_">
						<rect id="XMLID_70_" x="488.6" y="390.2" class="st16" width="103.2" height="64.9"/>
						<polygon id="XMLID_69_" class="st17" points="488.6,390.2 591.8,455.1 488.6,455.1 						"/>
					</g>
					<g id="XMLID_401_">
						<rect id="XMLID_68_" x="513.1" y="344.1" class="st16" width="73.2" height="46"/>
						<polygon id="XMLID_67_" class="st17" points="513.1,344.1 586.3,390.2 513.1,390.2 						"/>
					</g>
					<g id="XMLID_394_">
						<rect id="XMLID_66_" x="527.5" y="317.3" class="st16" width="42.7" height="26.8"/>
						<polygon id="XMLID_65_" class="st17" points="527.5,317.3 570.2,344.1 527.5,344.1 						"/>
					</g>
				</g>
			</g>
			<g id="XMLID_292_">
				<g id="XMLID_346_">
					<g id="XMLID_348_">
						<g id="XMLID_380_">
							<path id="XMLID_64_" class="st12" d="M419.8,390.1l10.7,0.1l0.2-3.2c4,3,18.1,3.6,29.6,3.4l0-4
								c-13.8-3.1-26.9-11.3-27.8-12.2c0,0,0,0,0,0c-0.7-0.9-1.7-7-1.8-11.9l-10.5-0.1l1.9,14.4c-0.1,0.1-0.2,0.2-0.2,0.4
								C420,380,419.8,390.1,419.8,390.1z"/>
							<path id="XMLID_63_" class="st8" d="M421.9,376.6c-0.1,0.1-0.2,0.2-0.2,0.4c3.7,0.1,8.6-1.8,10.7-2.8
								c-0.7-0.9-1.7-7-1.8-11.9l-10.5-0.1L421.9,376.6z"/>
							<g id="XMLID_381_">
								<g id="XMLID_386_">
									
										<rect id="XMLID_62_" x="437" y="379.5" transform="matrix(-0.5689 0.8224 -0.8224 -0.5689 1002.9097 235.1109)" class="st1" width="5.7" height="1.8"/>
								</g>
								<g id="XMLID_384_">
									
										<rect id="XMLID_61_" x="434.5" y="378" transform="matrix(-0.5688 0.8224 -0.8224 -0.5688 997.7692 234.7622)" class="st1" width="5.7" height="1.8"/>
								</g>
								<g id="XMLID_382_">
									
										<rect id="XMLID_60_" x="431.7" y="376.5" transform="matrix(-0.5689 0.8224 -0.8224 -0.5689 992.2245 234.7462)" class="st1" width="5.7" height="1.8"/>
								</g>
							</g>
						</g>
						<g id="XMLID_368_">
							<path id="XMLID_59_" class="st12" d="M391,390.1l-10.7,0.1l-0.2-3.2c-4,3-18.1,3.6-29.6,3.4l0-4
								c13.8-3.1,26.9-11.3,27.8-12.2c0,0,0,0,0,0c0.7-0.9,1.7-7,1.8-11.9l10.5-0.1l-1.9,14.4c0.1,0.1,0.2,0.2,0.2,0.4
								C390.8,380,391,390.1,391,390.1z"/>
							<path id="XMLID_58_" class="st8" d="M388.8,376.6c0.1,0.1,0.2,0.2,0.2,0.4c-3.7,0.1-8.6-1.8-10.7-2.8c0.7-0.9,1.7-7,1.8-11.9
								l10.5-0.1L388.8,376.6z"/>
							<g id="XMLID_369_">
								<g id="XMLID_374_">
									
										<rect id="XMLID_57_" x="368.1" y="379.5" transform="matrix(0.5689 0.8224 -0.8224 0.5689 472.8093 -141.0607)" class="st1" width="5.7" height="1.8"/>
								</g>
								<g id="XMLID_372_">
									
										<rect id="XMLID_56_" x="370.6" y="378" transform="matrix(0.5689 0.8224 -0.8224 0.5689 472.6369 -143.7528)" class="st1" width="5.7" height="1.8"/>
								</g>
								<g id="XMLID_370_">
									
										<rect id="XMLID_55_" x="373.3" y="376.5" transform="matrix(0.5689 0.8224 -0.8224 0.5689 472.6228 -146.6609)" class="st1" width="5.7" height="1.8"/>
								</g>
							</g>
						</g>
					</g>
					<path id="XMLID_54_" class="st12" d="M430.7,223.7c0,0,7.8,131.8,6.1,141.5H417c0,0-4.5-109.6-9.6-112.1
						c-5.2-2.4-10.4,112.1-10.4,112.1h-19.2l10.3-139.5L430.7,223.7z"/>
				</g>
				<g id="XMLID_293_">
					<g id="XMLID_337_">
						<path id="XMLID_53_" class="st1" d="M478.1,82.9l-169.4,28.9c-1.3,0.2-2.6-0.7-2.8-2L303,93c-0.2-1.3,0.7-2.6,2-2.8
							l169.4-28.9c1.3-0.2,2.6,0.7,2.8,2l2.9,16.8C480.3,81.4,479.4,82.7,478.1,82.9z"/>
						<g id="XMLID_338_">
							<path id="XMLID_52_" class="st17" d="M478.6,82.8L448.1,88l-3.7-21.5l30.4-5.2c1-0.2,2,0.5,2.2,1.6l3,17.7
								C480.3,81.7,479.6,82.6,478.6,82.8z"/>
							<path id="XMLID_339_" class="st1" d="M472.2,78.8l-5.1-3.6c1-2.7,0.2-5.8-2.3-7.5c-2.9-2.1-6.9-1.4-9,1.5
								c-2.1,2.9-1.4,6.9,1.5,9c2.4,1.7,5.7,1.5,7.9-0.4l5.1,3.6c0.3,0.2,0.7,0.1,1-0.2l1-1.4C472.6,79.4,472.5,79,472.2,78.8z
								 M462,77.5c-2.5,0.4-4.9-1.3-5.4-3.8c-0.4-2.5,1.3-4.9,3.8-5.4c2.5-0.4,4.9,1.3,5.4,3.8C466.2,74.6,464.5,77,462,77.5z"/>
						</g>
					</g>
					<g id="XMLID_294_">
						<path id="XMLID_49_" class="st5" d="M385.7,241.5c0,0,1.9-76.2,5.2-79.5c3.4-3.3,7.8-3.3,7.8-3.3l11.1,0.7l11.1-1.1
							c0,0,6,3.2,6.9,6.6c0.8,3.4,5.3,77.5,5.3,77.5S409.6,251,385.7,241.5z"/>
						<g id="XMLID_331_">
							<path id="XMLID_48_" class="st8" d="M417.2,156.8c-8.5,2.4-15,0.1-15,0.1c0.9-1.6,1.4-3.8,1.6-6.1c0.1-1,0.1-2,0.2-2.9
								c0.1-2.9-0.2-5.3-0.2-5.3l10.8-0.6l0.3,1.5l1.2,7L417.2,156.8z"/>
							<path id="XMLID_47_" class="st13" d="M416.2,150.5c-3.3,0.4-8,0.7-12.3,0.2c0.1-1,0.1-2,0.2-2.9c0,0,8-1.5,10.9-4.3
								L416.2,150.5z"/>
						</g>
						<g id="XMLID_310_">
							<path id="XMLID_46_" class="st8" d="M396.8,112c0,0-8.4,29.4,3,34.8c12,5.7,20.3-10.5,20.3-10.5l2.7-20.6L396.8,112z"/>
							<g id="XMLID_327_">
								<path id="XMLID_45_" class="st14" d="M410.9,134.1c0,0,0.2,0.4,0.3,0.9c0.1,0.6,0.2,1.3-0.1,2.1c-0.2,0.7-0.7,1.3-1.2,1.7
									c-0.4,0.4-0.8,0.5-0.8,0.5s0.1,0,0.3,0c0.2,0,0.4-0.1,0.7-0.2c0.6-0.2,1.3-0.8,1.7-1.7c0.3-0.9,0-1.9-0.3-2.4
									c-0.2-0.3-0.3-0.5-0.5-0.6C410.9,134.2,410.9,134.1,410.9,134.1z"/>
							</g>
							<circle id="XMLID_44_" class="st13" cx="398.6" cy="133.1" r="2"/>
							<g id="XMLID_311_">
								<path id="XMLID_43_" class="st12" d="M426.5,137c4.2-3.8,6.4-9.4,7.2-15.1c0.5-3.3,0.4-6.9-1.3-9.9
									c-1.7-2.9-5.6-4.9-8.7-3.4c-0.1-1.5-1.3-2.7-2.5-3.6c-3.1-2.2-7-3.2-10.7-2.7c-2.8,0.4-6,1.6-8.4,0
									c-1.1-0.7-1.7-2.3-0.8-3.1c-2.5,1.2-3.6,4.7-2.1,7.1c-0.8-0.2-1.7-0.5-2.4-1c-0.7-0.6-1.3-1.4-0.9-2.2
									c-2.2,1.3-3.8,3.6-4.3,6.2c-0.5,2.5,0.2,5.3,1.7,7.3c1.6,2.1,4.2,3.5,6.8,4.1c2.6,0.6,5.3,0.7,8,0.6
									c0.5,4.8,0.6,9.8,0.2,14.6c0.5-1,0.9-2.1,1.8-2.7c0.9-0.7,2.2-0.8,3-0.1c0.7,0.6,0.7,1.6,0.7,2.5c-0.1,1.5-0.5,3.1-1.5,4.3
									c-0.9,1.2-2.4,2.1-3.9,2c-1.3,7.4,6.4,10.2,7.1,10.5c-0.2-1-0.2-2,0.1-3c0.7,1.1,1.9,1.9,3.1,2.3c-0.8-1.4-0.1-3.1,0.8-4.4
									C421.8,143.9,423.5,139.7,426.5,137z"/>
								<g id="XMLID_312_">
									<g id="XMLID_323_">
										<path id="XMLID_42_" class="st15" d="M412.3,118.1c0,0-0.3,0.1-0.9,0.4c-0.6,0.2-1.4,0.5-2.5,0.7
											c-2.1,0.4-5.3,0.3-8.4-0.8c-1.6-0.5-3.1-1.3-4.2-2.3c-1.2-1-1.9-2.2-2.3-3.2c-0.4-1-0.5-1.9-0.6-2.5c0-0.6,0-0.9,0-0.9
											s0.1,0.3,0.3,0.9c0.2,0.5,0.6,1.3,1.2,2.1c0.6,0.8,1.4,1.6,2.5,2.3c1.1,0.7,2.4,1.2,3.8,1.7c2.9,1,5.6,1.6,7.7,1.8
											c1,0.1,1.9,0.1,2.5,0.1C411.9,118.1,412.3,118.1,412.3,118.1z"/>
									</g>
									<g id="XMLID_321_">
										<path id="XMLID_41_" class="st15" d="M420.3,127.7c0,0,0,0.1,0,0.5l-0.2-0.1c0.3-0.4,0.9-1.1,1.4-2.2
											c0.6-1.1,1.2-2.4,1.6-3.9c1.1-3.7,0.6-7.3,0.2-7.1c0,0,0.2,0,0.6,0.3c0.3,0.3,0.7,0.9,1,1.5c0.6,1.4,1,3.6,0.3,5.8
											c-0.5,1.8-1.6,3.3-2.6,4.2c-1,0.9-2,1.4-2.4,1.5l-0.3,0.1l0.1-0.2C420.2,127.8,420.3,127.7,420.3,127.7z"/>
									</g>
									<g id="XMLID_319_">
										<path id="XMLID_40_" class="st15" d="M422.1,130.6c0,0,0.2-0.2,0.6-0.5c0.4-0.3,0.9-0.8,1.4-1.5c1.1-1.3,2.3-3.4,2.9-5.8
											c0.7-2.4,0.8-4.8,0.8-6.6c0-0.9-0.1-1.6-0.1-2.1c0-0.5-0.1-0.8-0.1-0.8s0.1,0.2,0.4,0.7c0.2,0.5,0.5,1.1,0.8,2
											c0.6,1.8,1,4.5,0.2,7.3c-0.8,2.9-2.7,5-4.3,6c-0.8,0.5-1.5,0.8-2,1C422.3,130.6,422.1,130.6,422.1,130.6z"/>
									</g>
									<g id="XMLID_317_">
										<path id="XMLID_39_" class="st15" d="M417.8,112.8c0,0-0.2,0.2-0.7,0.5c-0.5,0.3-1.2,0.6-2.2,0.9
											c-1.9,0.6-4.7,0.8-7.6,0.6c-1.5-0.1-2.9-0.4-4.2-0.8c-1.3-0.5-2.3-1.1-3.1-1.8c-0.8-0.7-1.2-1.4-1.4-1.9
											c-0.2-0.5-0.3-0.8-0.3-0.8s0.2,0.2,0.6,0.6c0.4,0.4,1,0.8,1.8,1.2c1.6,0.9,4,1.3,6.9,1.4c2.9,0.2,5.4,0.6,7.3,0.5
											c0.9,0,1.7-0.1,2.2-0.2C417.5,112.8,417.8,112.8,417.8,112.8z"/>
									</g>
									<g id="XMLID_315_">
										<path id="XMLID_38_" class="st15" d="M417.1,109.5c0,0-0.5,0.5-1.6,1c-1,0.5-2.6,0.9-4.4,0.7c-1.8-0.2-3.3-0.9-4.2-1.6
											c-0.9-0.7-1.3-1.3-1.3-1.3s0.7,0.1,1.8,0.3c1.1,0.2,2.5,0.3,4,0.5c1.5,0.2,2.9,0.3,4,0.4
											C416.4,109.5,417.1,109.5,417.1,109.5z"/>
									</g>
									<g id="XMLID_313_">
										<path id="XMLID_37_" class="st15" d="M417.5,107.9c0,0-0.4,0-0.9,0c-0.5,0-1.2-0.1-1.8-0.3c-0.6-0.2-1.1-0.6-1.6-0.9
											c-0.4-0.3-0.7-0.6-0.7-0.6s0.3-0.3,0.8-0.5c0.5-0.2,1.4-0.4,2.2-0.1c0.8,0.3,1.4,0.9,1.7,1.4
											C417.4,107.5,417.5,107.9,417.5,107.9z"/>
									</g>
								</g>
							</g>
						</g>
						<path id="XMLID_36_" class="st1" d="M402.3,156.9l-3.6,1.8c0,0,3.6,3.7,11.9,3.3c7.1-0.4,10.3-3.6,10.3-3.6l-3.5-1.6
							C417.2,156.8,410.7,158.6,402.3,156.9z"/>
						<g id="XMLID_302_">
							<path id="XMLID_35_" class="st8" d="M373.3,95.7l-1.7-3.1l-1.8-5.3l-4.2-0.8l-3.6,3.1c0,0-5.1,1.1-6,3.1
								c-0.9,2-0.2,11.6-0.2,11.6l2.7,2.5l-0.3,2.5l-4.3,31.2h11l3.3-30.4l0.4-2l5.5-4.4L373.3,95.7z"/>
							<path id="XMLID_34_" class="st5" d="M369.1,145.1c-2.5-3.9-0.6-10,0.9-20.2l-16.7-2c-1.1,9.5-3.1,20.1,0.1,29.3
								c3.6,10,22.9,23.5,40.5,29.9l4.8-23.3C383.3,159.4,373.7,152.4,369.1,145.1z"/>
						</g>
						<g id="XMLID_295_">
							<path id="XMLID_33_" class="st8" d="M443.4,83.8l1.3-3.3l1.2-5.5l4.1-1.3l4,2.7c0,0,5.2,0.4,6.3,2.3
								c1.1,1.9,1.6,11.5,1.6,11.5l-2.4,2.8l0.6,2.4l8,30.5l-11,1.3l-7-29.7l-0.6-2l-6-3.7L443.4,83.8z"/>
							<path id="XMLID_32_" class="st5" d="M453.6,132.3c2-4.2-0.6-10-3.3-19.9l16.4-4.1c2.3,9.3,5.5,19.6,3.4,29.1
								c-2.3,10.3-26.5,32.9-43.2,41.3l-6-20.4C435.7,155.3,449.9,140.1,453.6,132.3z"/>
						</g>
					</g>
				</g>
			</g>
		</g>
		<g id="XMLID_159_">
			<path id="XMLID_31_" class="st2" d="M340.4,450.1c0,0-38.6,5-86.1,5c-47.6,0-86.1-5-86.1-5s38.6-5,86.1-5
				C301.9,445.1,340.4,450.1,340.4,450.1z"/>
			<g id="XMLID_160_">
				<polygon id="XMLID_30_" class="st13" points="256,239.6 268.8,220.4 283,215.5 283.3,217.9 275,223.2 284.2,225.7 294.5,217.7 
					296.3,219.5 285.5,230.2 271.4,229 264.9,241.7 				"/>
				<path id="XMLID_29_" class="st18" d="M218.9,208.8c0,0-22.2,45-13.8,58c8.4,13,33.2,4.5,33.2,4.5L218.9,208.8z"/>
				<g id="XMLID_275_">
					<g id="XMLID_280_">
						<path id="XMLID_28_" class="st8" d="M272.2,445.8v4.3h-26l1.3-12.7l0.5-4.9l2.1-20.1h9.9c0,0-0.6,11.3-0.4,19.5
							c0.1,3,0.2,5.5,0.6,6.9c0,0.1,0.1,0.2,0.1,0.3C261.7,443.8,272.2,445.8,272.2,445.8z"/>
						<path id="XMLID_27_" class="st1" d="M272.2,445.8v4.3h-26l1.3-12.7l0.5-4.9c0.3,0.1,0.5,0.2,0.8,0.3c3.6,0.8,7.4,0.5,10.8-0.9
							c0.1,3,0.2,5.5,0.6,6.9c0,0.1,0.1,0.2,0.1,0.3C261.7,443.8,272.2,445.8,272.2,445.8z"/>
						<path id="XMLID_26_" class="st12" d="M272.2,445.8v4.3h-26l1.3-12.7c0.1,0.1,0.2,0.1,0.3,0.2c2,1.1,4.1,1.8,6.4,2
							c2.1,0.2,4.1-0.1,6.1-0.8c0,0.1,0.1,0.2,0.1,0.3C261.7,443.8,272.2,445.8,272.2,445.8z"/>
					</g>
					<g id="XMLID_276_">
						<path id="XMLID_25_" class="st8" d="M245.4,445.8v4.3h-26l1.3-12.7l0.5-4.9l2.1-20.1h9.9c0,0-0.6,11.3-0.4,19.5
							c0.1,3,0.2,5.5,0.6,6.9c0,0.1,0.1,0.2,0.1,0.3C235,443.8,245.4,445.8,245.4,445.8z"/>
						<path id="XMLID_24_" class="st1" d="M245.4,445.8v4.3h-26l1.3-12.7l0.5-4.9c0.3,0.1,0.5,0.2,0.8,0.3c3.6,0.8,7.4,0.5,10.8-0.9
							c0.1,3,0.2,5.5,0.6,6.9c0,0.1,0.1,0.2,0.1,0.3C235,443.8,245.4,445.8,245.4,445.8z"/>
						<path id="XMLID_23_" class="st12" d="M245.4,445.8v4.3h-26l1.3-12.7c0.1,0.1,0.2,0.1,0.3,0.2c2,1.1,4.1,1.8,6.4,2
							c2.1,0.2,4.1-0.1,6.1-0.8c0,0.1,0.1,0.2,0.1,0.3C235,443.8,245.4,445.8,245.4,445.8z"/>
					</g>
				</g>
				<g id="XMLID_262_">
					<g id="XMLID_263_">
						<g id="XMLID_264_">
							<path id="XMLID_22_" class="st7" d="M255.4,271.9c0,0,4.3-65.4,0.5-68.2c-4.4-3.4-9.7-1.5-9.7-1.5l-11.1,0.7l-4.2-1.1
								c0,0-9.1,1.5-12,7c-1.6,3-5.8,64-5.8,64S231.5,281.4,255.4,271.9z"/>
							<g id="XMLID_269_">
								<path id="XMLID_21_" class="st8" d="M234.5,200.2c8.5,2.4,15,0.1,15,0.1c-0.9-1.6-1.4-3.8-1.6-6.1c-0.1-1-0.1-2-0.2-2.9
									c-0.1-2.9,0.2-5.3,0.2-5.3l-10.8-0.6l-0.3,1.5l-1.2,7L234.5,200.2z"/>
								<path id="XMLID_20_" class="st13" d="M235.6,194c3.3,0.4,8,0.7,12.3,0.2c-0.1-1-0.1-2-0.2-2.9c0,0-8-1.5-10.9-4.3L235.6,194
									z"/>
							</g>
							<g id="XMLID_266_">
								<path id="XMLID_19_" class="st8" d="M261.3,160.2c0,0,0.2,30.6-12.2,32.7c-13,2.2-16.7-15.5-16.7-15.5l2.9-20.6L261.3,160.2
									z"/>
								<circle id="XMLID_18_" class="st13" cx="253.9" cy="180.2" r="2"/>
							</g>
							<path id="XMLID_17_" class="st1" d="M249.5,200.3l3.6,1.8c0,0-3.6,3.7-11.9,3.3c-7.1-0.4-10.3-3.6-10.3-3.6l3.5-1.6
								C234.5,200.2,241.1,202.1,249.5,200.3z"/>
						</g>
					</g>
				</g>
				<path id="XMLID_16_" class="st12" d="M218.9,356.6l1.7,67.1h14.1c0.2-15.6,3.7-69.7,3.7-69.7s-9.1-51.1-2.7-52
					c2.7-0.4,11.3,51.5,11.3,51.5l-0.7,70.2h15.6l6.1-69.5l-12.5-82.4l-42.3,0.9c0,0-5.1,17.8-4.9,23.2
					C208.5,302.8,218.9,356.6,218.9,356.6z"/>
				<polygon id="XMLID_15_" class="st7" points="217.2,419.8 218,427.9 236.4,426.8 236.4,421.2 				"/>
				<g id="XMLID_253_">
					<path id="XMLID_14_" class="st16" d="M323.2,224.5h-41.5c-2.4,0-4.4-2-4.4-4.4v-41.5c0-2.4,2-4.4,4.4-4.4h41.5
						c2.4,0,4.4,2,4.4,4.4V220C327.6,222.5,325.6,224.5,323.2,224.5z"/>
					<path id="XMLID_13_" class="st1" d="M305.6,198.2c2.8-1.2,4.7-3.9,4.7-7.1c0-4.3-3.5-7.8-7.8-7.8c-4.3,0-7.8,3.5-7.8,7.8
						c0,3.2,1.9,5.9,4.7,7.1c-6.4,1.4-11.2,7.1-11.2,14v0.9h28.6v-0.9C316.7,205.4,312,199.7,305.6,198.2z"/>
				</g>
				<polygon id="XMLID_12_" class="st7" points="263.9,418.8 263.1,426.8 244.7,425.7 244.7,420.2 				"/>
				<g id="XMLID_244_">
					<polygon id="XMLID_11_" class="st8" points="291.7,240 304.6,220.8 318.7,215.9 319,218.3 310.7,223.6 319.9,226.2 
						330.2,218.1 332,219.9 321.2,230.6 307.1,229.4 300.6,242.2 					"/>
					<path id="XMLID_10_" class="st18" d="M253.9,202.5c0,0,8.8,3.7,11.2,12.9c2.4,9.1,11,36.7,12.8,37.3c1.8,0.6,14-19.5,14-19.5
						l14,9.7c0,0-12.8,30.8-28,32.6c-10,1.2-18.8-24.6-23.7-42.3C251.5,223.2,251.4,212.6,253.9,202.5L253.9,202.5z"/>
					<polygon id="XMLID_9_" class="st1" points="287.4,238.1 291.7,231.2 308,243.3 305.9,246.4 					"/>
				</g>
				<g id="XMLID_161_">
					<path id="XMLID_8_" class="st12" d="M261.2,164.9c0.1-0.4,0-1.3,0.1-1.7c-5.8,1.1-10.7,6.2-11.5,12.1
						c-0.8,5.9,2.4,12.1,7.7,14.8c-8.8,1-17.8,1.3-26.3-1.1c-8.5-2.4-17.8-7.9-21.5-16c1.1,0.6,3.8-0.1,4.6-1
						c5.3-5.2,6.9-12.9,9.6-19.8c1-2.6,2.2-5.1,4.4-6.9c2.1-1.8,5.3-2.5,7.7-1.1c1.8-2,5.4-2.5,8.1-2.4c9,0.5,17.4,6.9,20.3,15.4
						c0.5,1.5,0.8,3.1,0.5,4.6C264.4,163.2,262.7,164.6,261.2,164.9z"/>
					<g id="XMLID_162_">
						<g id="XMLID_241_">
							<path id="XMLID_7_" class="st15" d="M217.5,174.1c0,0,0.1,0,0.3,0c0.2,0,0.5-0.1,0.9-0.2c0.7-0.3,1.7-1,2.4-2.2
								c0.7-1.2,1.2-2.9,1.8-4.7c0.6-1.9,1.4-3.9,2.2-6c0.8-2.1,1.7-4.1,2.5-5.9c0.8-1.8,1.9-3.5,3.1-4.5c1.2-1.1,2.4-1.6,3.2-1.7
								c0.4-0.1,0.8-0.1,1-0.1c0.2,0,0.3,0,0.3,0s-0.1,0-0.3,0.1c-0.2,0.1-0.5,0.2-0.9,0.3c-0.7,0.4-1.7,1-2.6,2.2
								c-0.9,1.1-1.6,2.6-2.2,4.5c-0.6,1.8-1.3,3.9-2.2,6c-0.8,2.1-1.7,4.1-2.5,5.9c-0.8,1.8-1.6,3.4-2.6,4.7
								c-1.1,1.2-2.3,1.8-3.2,1.9c-0.4,0.1-0.8,0-1,0C217.6,174.1,217.5,174.1,217.5,174.1z"/>
						</g>
						<g id="XMLID_239_">
							<path id="XMLID_6_" class="st15" d="M257.1,151.8c0,0-0.5-0.5-1.8-1c-1.2-0.5-3-1.3-5.1-1.8c-2.2-0.5-5-0.8-7.4,0.6
								c-2.4,1.5-4.7,4-6.2,7c-1.5,3-2.3,6.3-3.1,9.3c-0.8,3-1.8,5.7-3,7.8c-1.2,2.1-2.6,3.5-3.5,4.4c-1,0.9-1.6,1.3-1.6,1.3
								s0.5-0.5,1.3-1.5c0.8-1,1.9-2.5,2.8-4.6c0.9-2.1,1.6-4.7,2.2-7.7c0.7-3,1.3-6.4,3-9.8c0.8-1.7,1.9-3.2,3.1-4.5
								c1.2-1.3,2.5-2.4,4.1-3.1c1.5-0.8,3.2-1,4.7-0.9c1.5,0.1,2.8,0.4,3.9,0.9c2.2,0.9,3.8,1.9,5,2.6c0.6,0.3,1,0.6,1.3,0.9
								C257,151.6,257.1,151.8,257.1,151.8z"/>
						</g>
						<g id="XMLID_165_">
							<path id="XMLID_5_" class="st15" d="M256.6,155.2c0,0-0.1-0.1-0.4-0.2c-0.3-0.1-0.6-0.3-1.1-0.4c-1-0.3-2.5-0.3-4.4-0.1
								c-1.9,0.3-4.2,0.5-5.6,2.1c-0.8,0.8-1.5,1.9-2.1,3c-0.7,1.1-1.3,2.4-1.8,3.7c-1.1,2.6-1.5,5.2-1.9,7.7
								c-0.4,2.5-1,4.8-1.8,6.6c-0.8,1.8-1.8,3.1-2.6,3.9c-0.8,0.8-1.2,1.1-1.2,1.1s0.4-0.4,1-1.3c0.6-0.9,1.3-2.2,1.8-4
								c0.5-1.8,0.8-4,1-6.5c0.2-2.5,0.6-5.4,1.7-8.2c0.6-1.4,1.2-2.7,2-3.9c0.8-1.2,1.6-2.3,2.7-3.3c1-1,2.4-1.5,3.6-1.7
								c1.2-0.2,2.3-0.2,3.2-0.2c1.9,0,3.6,0.3,4.6,0.8c0.5,0.2,0.8,0.5,1.1,0.7C256.5,155.1,256.6,155.2,256.6,155.2z"/>
						</g>
						<g id="XMLID_163_">
							<path id="XMLID_4_" class="st15" d="M256.8,159.1c0,0-0.1,0-0.3,0.1c-0.2,0-0.5,0.1-0.8,0.2c-0.7,0.2-1.7,0.7-2.8,1.4
								c-1.1,0.7-2.2,1.8-3.2,3.1c-1,1.3-1.8,3-2.5,4.9c-0.6,1.9-1,3.7-1.2,5.5c-0.3,1.8-0.4,3.5-1,4.8c-0.5,1.3-1,2.3-1.4,3
								c-0.4,0.7-0.6,1-0.6,1s0.1-0.4,0.3-1.2c0.2-0.7,0.5-1.8,0.7-3.1c0.3-1.3,0.2-2.9,0.2-4.7c0-1.8,0.3-3.9,1-6
								c0.7-2.1,1.8-3.9,3.1-5.4c1.3-1.4,2.8-2.4,4.1-2.9c1.3-0.5,2.5-0.7,3.2-0.8c0.4,0,0.7,0,0.9,0
								C256.7,159,256.8,159.1,256.8,159.1z"/>
						</g>
					</g>
				</g>
			</g>
		</g>
		<g id="XMLID_138_">
			<rect id="XMLID_3_" x="468.9" y="211.4" class="st3" width="88.1" height="60.7"/>
			<rect id="XMLID_2_" x="479.7" y="223.2" class="st5" width="66.5" height="37"/>
			<rect id="XMLID_1_" x="490.7" y="231.8" class="st19" width="44.5" height="20"/>
		</g>
	</g>
</g>
</svg>
